<?xml version="1.0" standalone="no"?>
<!DOCTYPE svg PUBLIC "-//W3C//DTD SVG 20010904//EN"
 "http://www.w3.org/TR/2001/REC-SVG-20010904/DTD/svg10.dtd">
<svg version="1.0" xmlns="http://www.w3.org/2000/svg"
 width="550.000000pt" height="550.000000pt" viewBox="0 0 550.000000 550.000000"
 preserveAspectRatio="xMidYMid meet">
<metadata>
Created by potrace 1.11, written by Peter Selinger 2001-2013
</metadata>
<g transform="translate(0.000000,550.000000) scale(0.100000,-0.100000)"
fill="#000000" stroke="none">
<path d="M1881 5274 c-96 -41 -212 -183 -233 -285 l-12 -57 -80 -33 c-196 -79
-312 -144 -480 -268 -385 -285 -745 -708 -760 -893 -10 -123 96 -265 249 -333
94 -42 290 -103 480 -150 302 -74 349 -93 474 -190 119 -92 187 -181 261 -340
44 -96 49 -119 23 -111 -25 8 -132 22 -228 32 -117 11 -175 27 -265 75 -70 38
-106 71 -153 142 -63 96 -129 110 -216 46 -23 -16 -63 -59 -89 -95 -26 -35
-51 -64 -57 -64 -5 1 -34 6 -64 13 -187 44 -389 -75 -445 -261 -49 -168 52
-420 237 -588 82 -75 199 -118 249 -93 13 7 30 -4 74 -45 60 -58 137 -104 219
-129 76 -25 101 -28 220 -32 112 -4 217 12 340 51 76 24 230 99 297 145 33 22
61 39 62 37 1 -2 17 -46 36 -98 85 -244 288 -630 452 -860 31 -44 54 -80 50
-81 -4 0 -50 -2 -102 -4 -88 -3 -145 -8 -245 -21 -214 -27 -334 -139 -340
-319 -3 -80 4 -103 46 -157 38 -47 91 -75 155 -82 274 -29 1521 -23 1874 9 78
7 106 14 280 71 257 85 368 154 579 363 171 169 293 373 368 610 19 63 36 120
38 125 1 6 5 29 10 51 4 22 10 49 12 60 15 71 25 207 24 315 0 96 -3 123 -23
199 l-11 44 -26 -74 c-31 -88 -73 -170 -97 -190 -18 -15 -18 -12 2 61 22 80
64 277 69 325 4 33 10 64 13 70 10 16 11 377 1 440 -5 33 -11 71 -13 85 -25
162 -119 336 -245 453 -62 57 -149 122 -156 115 -2 -1 -5 -39 -8 -83 -4 -74
-20 -156 -35 -180 -3 -5 -16 49 -28 120 -44 263 -84 361 -199 480 -91 95 -195
155 -266 155 -37 0 -41 -3 -55 -36 -18 -42 -17 -129 2 -219 14 -68 58 -191
134 -375 114 -278 177 -492 196 -672 14 -124 5 -428 -16 -581 -12 -87 -60
-309 -69 -319 -3 -4 -6 93 -6 215 0 191 -10 411 -20 427 -1 3 -6 32 -9 65 -15
135 -97 438 -127 470 -5 5 -9 15 -9 22 0 7 -23 55 -51 105 -195 353 -503 621
-979 851 -158 77 -196 94 -310 142 -101 42 -173 81 -193 103 -10 11 -33 76
-51 144 -44 164 -98 273 -193 393 -52 65 -182 188 -255 242 l-76 57 0 103 c0
90 -4 110 -27 160 -29 63 -65 107 -107 129 -34 18 -54 17 -97 -2z"/>
</g>
</svg>
